# xmcd
#
# Track frame offsets:
#	150
#	16222
#	30640
#	44932
#	59464
#	74355
#	89637
#	101467
#	118935
#	136500
#	154197
#	166045
#
# Disc length: 2363 seconds
#
# Revision: 1
# Processed by: cddbd v1.5.1PL0 Copyright (c) Steve Scherf et al.
# Submitted via: CDRider 2.0
#
DISCID=a009390c
DTITLE=Dave Reynolds - Bush Ballads of Australia
DYEAR=1997
DGENRE=Country
TTITLE0=The Last Old Dog
TTITLE1=Old Sydney Town
TTITLE2=Terrors of a Country Town
TTITLE3=Year 2000 Australian Bushman
TTITLE4=The Ballad of Port Macquarie
TTITLE5=The Old Bloke
TTITLE6=Boot of Many Colours
TTITLE7=The Murray Cod
TTITLE8=Terrors Creek Hotel
TTITLE9=21 Guns
TTITLE10=Bushman from Down Under
TTITLE11=The Outback
EXTD=
EXTT0=
EXTT1=
EXTT2=
EXTT3=
EXTT4=
EXTT5=
EXTT6=
EXTT7=
EXTT8=
EXTT9=
EXTT10=
EXTT11=
PLAYORDER=
